# xmcd
#
# Track frame offsets:
#	150
#	16077
#	29840
#	43995
#	58795
#	75825
#	86360
#	102207
#	120265
#	134805
#	146675
#	163590
#	185002
#
# Disc length: 2787 seconds
#
# Revision: 1
# Processed by: cddbd v1.5.2PL0 Copyright (c) Steve Scherf et al.
# Submitted via: audiograbber 1.83.01
#
DISCID=ac0ae10d
DTITLE=Various Artist - Every Road I Take
DYEAR=1999
DGENRE=blues
TTITLE0=Pony Blues, Alvin Youngblood Hart
TTITLE1=Love Blues, Keb' Mo'
TTITLE2=Long Haired Doney, R.L. Burnside
TTITLE3=Georgia Jelly Roll, Guy Davis
TTITLE4=Rainy Day Blues, Tab Benoit
TTITLE5=Take Me Back, Corey Harris
TTITLE6=Every Road I Take, Sue Foley 
TTITLE7=Mac's Boogie, Dr. John
TTITLE8=Joliet Bound, Rory Block
TTITLE9=Riding in the Moonlight, John Hammond
TTITLE10=Memphis in the Meantime, Chris Smither
TTITLE11=Stack Lee Blues, Steve James
TTITLE12=Little Brother, Woody Mann
EXTD=
EXTT0=
EXTT1=
EXTT2=
EXTT3=
EXTT4=
EXTT5=
EXTT6=
EXTT7=
EXTT8=
EXTT9=
EXTT10=
EXTT11=
EXTT12=
PLAYORDER=
